<svg version="1.1" id="Layer_1" xmlns="http://www.w3.org/2000/svg" xmlns:xlink="http://www.w3.org/1999/xlink" x="0px" y="0px"
	 width="100%" viewBox="0 0 1024 720" enable-background="new 0 0 1024 720" xml:space="preserve">
<path fill="#000000" opacity="1.000000" stroke="none" 
	d="
M514.085083,282.000000 
	C514.091553,298.165680 514.167786,313.831970 514.039368,329.496552 
	C514.016235,332.315033 515.657104,336.470612 512.397278,337.665710 
	C508.497711,339.095337 503.951935,339.222382 500.027008,336.306396 
	C491.868317,330.244812 483.604279,324.324982 475.386078,318.343445 
	C446.960327,297.653839 418.537994,276.959564 390.102417,256.283508 
	C388.909485,255.416122 387.596680,254.713654 386.326080,253.925888 
	C384.283875,255.678146 385.113892,257.825958 385.108368,259.664764 
	C385.036591,283.496399 385.064819,307.328339 385.053650,331.160187 
	C385.050354,338.219635 384.973694,338.278839 378.251740,338.305115 
	C365.614410,338.354584 365.609100,338.354584 365.606842,325.874176 
	C365.601196,294.709412 365.696136,263.544067 365.500793,232.380524 
	C365.469696,227.420013 366.885620,225.987625 371.951630,225.672073 
	C380.448090,225.142853 387.122925,227.667572 393.898132,232.814423 
	C425.610077,256.904755 457.675385,280.530121 489.637787,304.290222 
	C490.931091,305.251617 491.950470,306.732605 493.893127,306.888672 
	C495.254608,305.138275 494.618774,303.071960 494.623077,301.176544 
	C494.675781,278.011414 494.744568,254.845505 494.581604,231.681412 
	C494.551727,227.438583 495.690186,225.687881 500.189545,225.799850 
	C516.137146,226.196762 513.940552,223.613678 514.054138,239.503159 
	C514.154175,253.501465 514.081299,267.501007 514.085083,282.000000 
z"/>
<path fill="#000000" opacity="1.000000" stroke="none" 
	d="
M63.126480,325.625793 
	C60.599171,321.315369 59.714859,316.997681 59.725651,312.392731 
	C59.772907,292.234283 59.717876,272.075592 59.748039,251.917053 
	C59.764923,240.634628 64.458588,233.918045 74.951187,229.728271 
	C82.522743,226.704895 90.509995,225.999054 98.479942,225.943878 
	C126.300819,225.751297 154.124313,225.944061 181.945404,225.768707 
	C186.543320,225.739731 188.120102,227.293961 188.052338,231.816681 
	C187.844376,245.694962 188.978882,243.306366 176.724136,243.365158 
	C151.401520,243.486618 126.077934,243.417587 100.754784,243.391190 
	C96.397285,243.386658 92.132446,243.930237 87.919250,245.004349 
	C84.025932,245.996948 82.095467,248.253433 82.118279,252.493591 
	C82.224907,272.318329 82.220093,292.144257 82.117477,311.969055 
	C82.096588,316.005524 84.032883,318.141296 87.605484,319.232056 
	C90.805702,320.209137 94.056549,320.730103 97.433159,320.720032 
	C115.592377,320.665833 133.751846,320.694580 151.911224,320.688263 
	C153.076813,320.687866 154.249359,320.705536 155.406830,320.592957 
	C165.741547,319.587616 167.618225,317.515198 167.583496,307.173645 
	C167.554413,298.516266 167.610092,289.856750 167.418518,281.202820 
	C167.350021,278.107574 168.114182,276.511536 171.539581,276.645050 
	C176.030807,276.820129 180.535812,276.754913 185.031784,276.654510 
	C187.832291,276.592010 189.380203,277.413361 189.354858,280.581848 
	C189.257568,292.742706 189.674118,304.919983 189.171234,317.061005 
	C188.828873,325.326477 183.615356,330.730560 176.163864,333.899109 
	C169.178040,336.869659 161.775467,338.155640 154.252365,338.213165 
	C134.594833,338.363434 114.929008,338.564575 95.279282,338.145630 
	C84.611092,337.918213 73.911819,336.627319 65.580444,328.611603 
	C64.746384,327.809174 64.077362,326.835175 63.126480,325.625793 
z"/>
<path fill="#000000" opacity="1.000000" stroke="none" 
	d="
M324.943329,328.006653 
	C308.242462,301.964905 291.733490,276.230225 275.309875,250.628632 
	C272.402039,251.543335 271.796783,253.651932 270.753387,255.248978 
	C253.721069,281.319397 236.693069,307.393158 219.834732,333.576050 
	C217.584259,337.071320 215.079666,338.609375 210.908585,338.381989 
	C205.136169,338.067352 199.333771,338.303040 193.753464,338.303040 
	C192.725235,335.510040 194.374771,334.217407 195.327698,332.784027 
	C218.011795,298.662201 240.727036,264.561066 263.455139,230.468536 
	C267.957916,223.714294 280.944550,223.633972 285.414978,230.385208 
	C308.219147,264.823944 330.981781,299.290192 353.742828,333.757416 
	C354.447876,334.825073 355.583649,335.757599 355.067505,338.062805 
	C347.716003,338.062805 340.073303,338.809845 332.683319,337.766632 
	C328.621490,337.193237 327.714447,331.504028 324.943329,328.006653 
z"/>
</svg>